<?xml version="1.0" encoding="UTF-8" standalone="no"?>
<svg
   xmlns:dc="http://purl.org/dc/elements/1.1/"
   xmlns:cc="http://creativecommons.org/ns#"
   xmlns:rdf="http://www.w3.org/1999/02/22-rdf-syntax-ns#"
   xmlns:svg="http://www.w3.org/2000/svg"
   xmlns="http://www.w3.org/2000/svg"
   xmlns:sodipodi="http://sodipodi.sourceforge.net/DTD/sodipodi-0.dtd"
   xmlns:inkscape="http://www.inkscape.org/namespaces/inkscape"
   version="1.1"
   x="0px"
   y="0px"
   viewBox="0 0 100 125"
   enable-background="new 0 0 100 100"
   xml:space="preserve"
   id="svg4327"
   inkscape:version="0.91 r13725"
   sodipodi:docname="noun_3004_cc.svg"><metadata
     id="metadata4431"><rdf:RDF><cc:Work
         rdf:about=""><dc:format>image/svg+xml</dc:format><dc:type
           rdf:resource="http://purl.org/dc/dcmitype/StillImage" /><dc:title></dc:title></cc:Work></rdf:RDF></metadata><defs
     id="defs4429" /><sodipodi:namedview
     pagecolor="#ffffff"
     bordercolor="#666666"
     borderopacity="1"
     objecttolerance="10"
     gridtolerance="10"
     guidetolerance="10"
     inkscape:pageopacity="0"
     inkscape:pageshadow="2"
     inkscape:window-width="3200"
     inkscape:window-height="1732"
     id="namedview4427"
     showgrid="false"
     inkscape:zoom="10.728"
     inkscape:cx="50"
     inkscape:cy="65.482849"
     inkscape:window-x="0"
     inkscape:window-y="68"
     inkscape:window-maximized="1"
     inkscape:current-layer="svg4327" /><path
     d="M 50.078125 0.001953125 C 48.670838 0.032482422 47.354781 0.81367188 46.566406 1.7324219 L 47.707031 2.8847656 C 48.498031 1.9757656 49.523563 1.5175781 50.476562 1.6425781 L 50.685547 0.03515625 C 50.482047 0.00703125 50.279166 -0.0024082031 50.078125 0.001953125 z M 55.648438 4.21875 L 54.253906 5.0429688 C 54.839906 6.1589687 55.432906 7.2705625 55.878906 8.4765625 L 57.380859 7.8652344 C 56.915859 6.6142344 56.282438 5.41675 55.648438 4.21875 z M 43.289062 6.9980469 C 42.753062 8.2270469 42.284578 9.4771406 41.892578 10.744141 L 43.431641 11.246094 C 43.812641 10.013094 44.263437 8.8144844 44.773438 7.6464844 L 43.289062 6.9980469 z M 59.257812 13.568359 L 57.693359 13.996094 C 58.060359 15.233094 58.327234 16.502625 58.615234 17.765625 L 60.199219 17.417969 C 59.906219 16.130969 59.633812 14.839359 59.257812 13.568359 z M 40.318359 16.515625 L 39.513672 20.388672 L 41.105469 20.6875 L 41.896484 16.880859 L 40.318359 16.515625 z M 13.255859 22.351562 L 13.271484 23.972656 C 14.531484 24.021656 15.788641 24.06525 17.056641 24.28125 L 17.28125 22.675781 C 15.96625 22.452781 14.611859 22.400563 13.255859 22.351562 z M 83.960938 22.550781 C 82.627938 22.700781 81.312578 22.919844 80.017578 23.214844 L 80.353516 24.798828 C 81.610516 24.511828 82.875578 24.303156 84.142578 24.160156 L 83.960938 22.550781 z M 90.158203 22.755859 L 89.732422 24.320312 C 90.915422 24.550313 91.826359 25.210656 92.193359 26.097656 L 93.689453 25.474609 C 93.071453 23.952609 91.519203 23.011859 90.158203 22.755859 z M 61.308594 23.296875 L 59.707031 23.552734 L 60.269531 27.410156 L 61.876953 27.201172 L 61.308594 23.296875 z M 23.158203 23.902344 L 22.746094 25.46875 C 24.001094 25.77075 25.235656 26.172688 26.472656 26.554688 L 26.962891 25.009766 C 25.701891 24.619766 24.446203 24.212344 23.158203 23.902344 z M 7.1523438 24.558594 C 6.1423438 25.854594 6.1055 27.667609 6.5625 28.974609 L 8.1308594 28.5625 C 7.7388594 27.4245 7.8554531 26.306922 8.4394531 25.544922 L 7.1523438 24.558594 z M 74.232422 24.736328 C 72.966422 25.112328 71.711562 25.522563 70.476562 25.976562 L 71.013672 27.505859 C 72.233672 27.056859 73.465031 26.654156 74.707031 26.285156 L 74.232422 24.736328 z M 38.542969 26.335938 L 38.068359 30.251953 L 39.679688 30.427734 L 40.148438 26.554688 L 38.542969 26.335938 z M 32.607422 26.988281 L 32.03125 28.503906 L 35.652344 29.945312 L 36.273438 28.449219 L 32.607422 26.988281 z M 64.841797 28.109375 L 61.212891 29.65625 L 61.865234 31.140625 L 65.453125 29.609375 L 64.841797 28.109375 z M 91.138672 31.066406 C 90.465672 32.131406 89.799516 33.199453 88.978516 34.189453 L 90.255859 35.1875 C 91.105859 34.1595 91.829828 33.012281 92.548828 31.863281 L 91.138672 31.066406 z M 10.787109 33.482422 L 9.484375 34.445312 C 10.281375 35.525312 11.127297 36.554344 12.029297 37.527344 L 13.234375 36.445312 C 12.356375 35.499313 11.545109 34.508422 10.787109 33.482422 z M 85.103516 38.523438 C 84.214516 39.459437 83.249781 40.327031 82.300781 41.207031 L 83.392578 42.404297 C 84.361578 41.507297 85.341906 40.624063 86.253906 39.664062 L 85.103516 38.523438 z M 17.347656 40.591797 L 16.240234 41.777344 C 17.199234 42.684344 18.181359 43.566203 19.193359 44.408203 L 20.248047 43.179688 C 19.251047 42.348687 18.287656 41.481797 17.347656 40.591797 z M 77.833984 45.046875 C 76.812984 45.850875 75.819437 46.687938 74.773438 47.460938 L 75.757812 48.748047 C 76.814813 47.966047 77.822422 47.116734 78.857422 46.302734 L 77.833984 45.046875 z M 24.851562 46.943359 L 23.857422 48.226562 L 26.21875 49.998047 L 23.798828 51.816406 L 24.792969 53.097656 L 27.910156 50.755859 L 27.402344 50.0625 L 27.970703 49.285156 L 24.851562 46.943359 z M 75.701172 51.201172 L 74.716797 52.488281 C 75.766797 53.259281 76.755344 54.100344 77.777344 54.902344 L 78.800781 53.644531 C 77.766781 52.832531 76.761172 51.978172 75.701172 51.201172 z M 19.189453 55.587891 C 18.179453 56.429891 17.197281 57.31075 16.238281 58.21875 L 17.34375 59.404297 C 18.28375 58.513297 19.248094 57.647406 20.246094 56.816406 L 19.189453 55.587891 z M 83.339844 57.539062 L 82.246094 58.736328 C 83.195094 59.619328 84.165688 60.479969 85.054688 61.417969 L 86.203125 60.277344 C 85.290125 59.314344 84.306844 58.439062 83.339844 57.539062 z M 11.978516 62.523438 C 11.075516 63.496437 10.2355 64.534328 9.4375 65.611328 L 10.744141 66.570312 C 11.504141 65.545312 12.306547 64.550469 13.185547 63.605469 L 11.978516 62.523438 z M 90.255859 64.806641 L 88.978516 65.802734 C 89.799516 66.792734 90.465672 67.862734 91.138672 68.927734 L 92.550781 68.130859 C 91.829781 66.982859 91.107859 65.835641 90.255859 64.806641 z M 61.935547 68.884766 L 61.283203 70.369141 L 64.910156 71.914062 L 65.523438 70.412109 L 61.935547 68.884766 z M 39.689453 69.642578 L 38.076172 69.816406 L 38.554688 73.732422 L 40.160156 73.513672 L 39.689453 69.642578 z M 35.71875 70.021484 C 34.52675 70.544484 33.303656 70.979844 32.097656 71.464844 L 32.675781 72.980469 C 33.896781 72.491469 35.136797 72.044578 36.341797 71.517578 L 35.71875 70.021484 z M 6.5390625 71.099609 C 6.1030625 72.412609 6.1438906 74.242813 7.2128906 75.507812 L 8.4765625 74.494141 C 7.8445625 73.756141 7.7473281 72.634047 8.1113281 71.498047 L 6.5390625 71.099609 z M 71.017578 72.490234 L 70.480469 74.021484 L 74.234375 75.259766 L 74.710938 73.710938 L 71.017578 72.490234 z M 60.277344 72.513672 L 59.71875 76.369141 L 61.318359 76.626953 L 61.886719 72.720703 L 60.277344 72.513672 z M 26.542969 73.417969 C 25.302969 73.797969 24.071406 74.206812 22.816406 74.507812 L 23.230469 76.076172 C 24.519469 75.765172 25.772156 75.349844 27.035156 74.964844 L 26.542969 73.417969 z M 92.210938 73.845703 C 91.886938 74.760703 90.965781 75.407156 89.800781 75.660156 L 90.240234 77.220703 C 91.595234 76.940703 93.159703 75.992547 93.720703 74.435547 L 92.210938 73.845703 z M 80.427734 75.210938 L 80.09375 76.796875 C 81.38675 77.093875 82.705109 77.300078 84.037109 77.455078 L 84.216797 75.84375 C 82.949797 75.69775 81.685734 75.499937 80.427734 75.210938 z M 17.058594 75.714844 C 15.789594 75.931844 14.530484 75.974437 13.271484 76.023438 L 13.255859 77.642578 C 14.610859 77.595578 15.96525 77.541359 17.28125 77.318359 L 17.058594 75.714844 z M 41.107422 79.308594 L 39.513672 79.609375 C 39.738672 80.907375 40.011359 82.197469 40.318359 83.480469 L 41.896484 83.117188 C 41.595484 81.857187 41.328422 80.588594 41.107422 79.308594 z M 58.632812 82.158203 C 58.342812 83.420203 58.080844 84.691687 57.714844 85.929688 L 59.277344 86.355469 C 59.653344 85.084469 59.920844 83.792859 60.214844 82.505859 L 58.632812 82.158203 z M 43.455078 88.818359 L 41.914062 89.324219 C 42.305062 90.592219 42.787359 91.835406 43.318359 93.066406 L 44.802734 92.416016 C 44.296734 91.245016 43.834078 90.052359 43.455078 88.818359 z M 55.878906 91.519531 C 55.433906 92.726531 54.840906 93.838125 54.253906 94.953125 L 55.648438 95.777344 C 56.284438 94.579344 56.916859 93.380859 57.380859 92.130859 L 55.878906 91.519531 z M 47.753906 97.160156 L 46.623047 98.320312 C 47.543047 99.355312 49.144391 100.23536 50.775391 99.943359 L 50.529297 98.339844 C 49.575297 98.519844 48.554906 98.043156 47.753906 97.160156 z "
     id="polygon4329"
     style="fill:#669900"
     inkscape:export-xdpi="299.70261"
     inkscape:export-ydpi="299.70261" /><path
     d="M34.099,42.917c-1.702,1.671-2.76,3.996-2.76,6.571c0,2.245,0.805,4.302,2.139,5.9c0.527-2.115,1.649-3.992,3.184-5.445  C35.083,48.027,34.128,45.581,34.099,42.917z"
     id="path4411"
     style="fill:#cc0000" /><path
     d="M54.964,36.991c1.182-0.423,2.449-0.666,3.775-0.666c1.678,0,3.264,0.379,4.695,1.04c-1.381-3.347-4.672-5.705-8.52-5.705  c-1.606,0-3.116,0.413-4.432,1.136C52.338,33.754,53.888,35.212,54.964,36.991z"
     id="path4413"
     style="fill:#ff9900" /><path
     d="M44.385,46.853c1.082,0,2.125,0.162,3.115,0.448c0.1-4.036,2.33-7.544,5.609-9.45c-1.636-2.566-4.499-4.273-7.769-4.273  c-5.086,0-9.21,4.126-9.21,9.215c0,2.239,0.8,4.29,2.127,5.887C40.023,47.528,42.125,46.853,44.385,46.853z"
     id="path4415"
     style="fill:#003399" /><path
     d="M55.623,58.379c-0.073,3.021-1.335,5.751-3.345,7.732c1.344,0.766,2.895,1.208,4.551,1.208c5.092,0,9.215-4.122,9.215-9.21  c0-0.627-0.063-1.239-0.184-1.83c-1.94,1.59-4.42,2.547-7.121,2.547C57.658,58.826,56.614,58.664,55.623,58.379z"
     id="path4417"
     style="fill:#ff6600" /><path
     d="M47.664,49.501c-1.02-0.389-2.122-0.611-3.278-0.611c-5.091,0-9.214,4.125-9.214,9.213c0,5.088,4.124,9.215,9.214,9.215  c5.089,0,9.214-4.127,9.214-9.215c0-0.184-0.017-0.362-0.027-0.544C50.508,55.968,48.272,53.013,47.664,49.501z"
     id="path4419"
     style="fill:#6699ff" /><circle
     cx="58.739"
     cy="47.576"
     r="9.213"
     id="circle4421"
     style="fill:#3366cc" /><text
     x="0"
     y="115"
     fill="#000000"
     font-size="5px"
     font-weight="bold"
     font-family="'Helvetica Neue', Helvetica, Arial-Unicode, Arial, Sans-serif"
     id="text4423">Created by Chad Wimberly</text>
<text
     x="0"
     y="120"
     fill="#000000"
     font-size="5px"
     font-weight="bold"
     font-family="'Helvetica Neue', Helvetica, Arial-Unicode, Arial, Sans-serif"
     id="text4425">from the Noun Project</text>
<text
     id="text4434"
     font-weight="bold"
     font-size="5px"
     y="110.05965"
     x="0"
     style="font-weight:bold;font-size:5px;font-family:'Helvetica Neue', Helvetica, Arial-Unicode, Arial, Sans-serif;fill:#000000">Colored by Tim Caswell</text>
</svg>